# xmcd
#
# Track frame offsets:
#	150
#	12107
#	29498
#	42544
#	62310
#	82338
#	102986
#	125471
#	144187
#	161402
#	182923
#	205536
#	226144
#	249705
#	268286
#
# Disc length: 3841 seconds
#
# Revision: 1
# Processed by: cddbd v1.5.1PL0 Copyright (c) Steve Scherf et al.
# Submitted via: CDex 1.50Beta5
#
DISCID=cb0eff0f
DTITLE=Every Little Thing - Every Best Single+3
DYEAR=1999
DGENRE=Rock
TTITLE0=Feel My Heart
TTITLE1=Future World
TTITLE2=Dear My Friend
TTITLE3=For the moment
TTITLE4=出逢った頃のように
TTITLE5=Shapes Of Love
TTITLE6=Time goes by
TTITLE7=Face the change
TTITLE8=FOREVER YOURS
TTITLE9=NECESSARY
TTITLE10=Someday,Someplace
TTITLE11=Over and Over
TTITLE12=(When)Will It Rain
TTITLE13=キモチ
TTITLE14=Dedicate
EXTD=
EXTT0=
EXTT1=
EXTT2=
EXTT3=
EXTT4=
EXTT5=
EXTT6=
EXTT7=
EXTT8=
EXTT9=
EXTT10=
EXTT11=
EXTT12=
EXTT13=
EXTT14=
PLAYORDER=
